<mxfile host="app.diagrams.net" agent="Mozilla/5.0 (Macintosh; Intel Mac OS X 10_15_7) AppleWebKit/537.36 (KHTML, like Gecko) Chrome/140.0.0.0 Safari/537.36" version="28.2.4">
  <diagram name="ページ1" id="_ePW4zhoS9NOFlKjHNw6">
    <mxGraphModel dx="1379" dy="947" grid="1" gridSize="10" guides="1" tooltips="1" connect="1" arrows="1" fold="1" page="1" pageScale="1" pageWidth="1169" pageHeight="827" math="0" shadow="0">
      <root>
        <mxCell id="0" />
        <mxCell id="1" parent="0" />
        <mxCell id="D9AdO3M2kVD_GUAC84vx-3" value="MUX(6bit)" style="rounded=0;whiteSpace=wrap;html=1;labelPosition=center;verticalLabelPosition=top;align=center;verticalAlign=bottom;" vertex="1" parent="1">
          <mxGeometry x="600" y="260" width="40" height="60" as="geometry" />
        </mxCell>
        <mxCell id="D9AdO3M2kVD_GUAC84vx-1" value="SEQUENCER" style="rounded=0;whiteSpace=wrap;html=1;labelPosition=center;verticalLabelPosition=top;align=center;verticalAlign=bottom;" vertex="1" parent="1">
          <mxGeometry x="160" y="260" width="120" height="60" as="geometry" />
        </mxCell>
        <mxCell id="D9AdO3M2kVD_GUAC84vx-57" style="edgeStyle=orthogonalEdgeStyle;rounded=0;orthogonalLoop=1;jettySize=auto;html=1;exitX=0.25;exitY=1;exitDx=0;exitDy=0;endArrow=oval;endFill=0;" edge="1" parent="1" source="D9AdO3M2kVD_GUAC84vx-1">
          <mxGeometry relative="1" as="geometry">
            <mxPoint x="900" y="550" as="targetPoint" />
            <Array as="points">
              <mxPoint x="190" y="550" />
            </Array>
          </mxGeometry>
        </mxCell>
        <mxCell id="D9AdO3M2kVD_GUAC84vx-58" value="SYNC" style="edgeLabel;html=1;align=center;verticalAlign=middle;resizable=0;points=[];" vertex="1" connectable="0" parent="D9AdO3M2kVD_GUAC84vx-57">
          <mxGeometry x="1" y="1" relative="1" as="geometry">
            <mxPoint x="20" y="1" as="offset" />
          </mxGeometry>
        </mxCell>
        <mxCell id="D9AdO3M2kVD_GUAC84vx-60" value="SYNC" style="edgeLabel;html=1;align=center;verticalAlign=middle;resizable=0;points=[];" vertex="1" connectable="0" parent="D9AdO3M2kVD_GUAC84vx-57">
          <mxGeometry x="-0.9734" y="-1" relative="1" as="geometry">
            <mxPoint y="-22" as="offset" />
          </mxGeometry>
        </mxCell>
        <mxCell id="D9AdO3M2kVD_GUAC84vx-2" value="OUTPUT_PATCH(ROM)" style="rounded=0;whiteSpace=wrap;html=1;labelPosition=center;verticalLabelPosition=top;align=center;verticalAlign=bottom;" vertex="1" parent="1">
          <mxGeometry x="360" y="260" width="120" height="60" as="geometry" />
        </mxCell>
        <mxCell id="D9AdO3M2kVD_GUAC84vx-4" value="MUX(1bit)" style="rounded=0;whiteSpace=wrap;html=1;labelPosition=center;verticalLabelPosition=top;align=center;verticalAlign=bottom;" vertex="1" parent="1">
          <mxGeometry x="600" y="420" width="40" height="60" as="geometry" />
        </mxCell>
        <mxCell id="D9AdO3M2kVD_GUAC84vx-22" value="(3..5)" style="text;html=1;align=center;verticalAlign=middle;whiteSpace=wrap;rounded=0;" vertex="1" parent="1">
          <mxGeometry x="747" y="267" width="60" height="30" as="geometry" />
        </mxCell>
        <mxCell id="D9AdO3M2kVD_GUAC84vx-5" value="Decorder" style="rounded=0;whiteSpace=wrap;html=1;labelPosition=center;verticalLabelPosition=top;align=center;verticalAlign=bottom;" vertex="1" parent="1">
          <mxGeometry x="800" y="240" width="40" height="100" as="geometry" />
        </mxCell>
        <mxCell id="D9AdO3M2kVD_GUAC84vx-59" style="edgeStyle=orthogonalEdgeStyle;rounded=0;orthogonalLoop=1;jettySize=auto;html=1;exitX=0.5;exitY=1;exitDx=0;exitDy=0;entryX=0.583;entryY=1.011;entryDx=0;entryDy=0;entryPerimeter=0;startArrow=classic;startFill=1;" edge="1" parent="1">
          <mxGeometry relative="1" as="geometry">
            <mxPoint x="620.3200000000002" y="480.6600000000001" as="targetPoint" />
            <mxPoint x="620" y="320" as="sourcePoint" />
            <Array as="points">
              <mxPoint x="620" y="370" />
              <mxPoint x="667" y="370" />
              <mxPoint x="667" y="520" />
              <mxPoint x="620" y="520" />
            </Array>
          </mxGeometry>
        </mxCell>
        <mxCell id="D9AdO3M2kVD_GUAC84vx-61" value="SEL" style="edgeLabel;html=1;align=center;verticalAlign=middle;resizable=0;points=[];" vertex="1" connectable="0" parent="D9AdO3M2kVD_GUAC84vx-59">
          <mxGeometry x="-0.731" relative="1" as="geometry">
            <mxPoint y="-53" as="offset" />
          </mxGeometry>
        </mxCell>
        <mxCell id="D9AdO3M2kVD_GUAC84vx-62" value="SEL" style="edgeLabel;html=1;align=center;verticalAlign=middle;resizable=0;points=[];" vertex="1" connectable="0" parent="D9AdO3M2kVD_GUAC84vx-59">
          <mxGeometry x="0.8777" y="-1" relative="1" as="geometry">
            <mxPoint y="-29" as="offset" />
          </mxGeometry>
        </mxCell>
        <mxCell id="D9AdO3M2kVD_GUAC84vx-8" style="edgeStyle=orthogonalEdgeStyle;rounded=0;orthogonalLoop=1;jettySize=auto;html=1;exitX=1;exitY=0.5;exitDx=0;exitDy=0;entryX=0;entryY=0.5;entryDx=0;entryDy=0;" edge="1" parent="1" source="D9AdO3M2kVD_GUAC84vx-1" target="D9AdO3M2kVD_GUAC84vx-2">
          <mxGeometry relative="1" as="geometry" />
        </mxCell>
        <mxCell id="D9AdO3M2kVD_GUAC84vx-42" value="ADDR" style="edgeLabel;html=1;align=center;verticalAlign=middle;resizable=0;points=[];" vertex="1" connectable="0" parent="D9AdO3M2kVD_GUAC84vx-8">
          <mxGeometry x="0.6696" relative="1" as="geometry">
            <mxPoint x="32" as="offset" />
          </mxGeometry>
        </mxCell>
        <mxCell id="D9AdO3M2kVD_GUAC84vx-48" value="ECD" style="edgeLabel;html=1;align=center;verticalAlign=middle;resizable=0;points=[];" vertex="1" connectable="0" parent="D9AdO3M2kVD_GUAC84vx-8">
          <mxGeometry x="-0.4578" y="1" relative="1" as="geometry">
            <mxPoint x="16" y="-7" as="offset" />
          </mxGeometry>
        </mxCell>
        <mxCell id="D9AdO3M2kVD_GUAC84vx-51" value="ECD" style="edgeLabel;html=1;align=center;verticalAlign=middle;resizable=0;points=[];" vertex="1" connectable="0" parent="D9AdO3M2kVD_GUAC84vx-8">
          <mxGeometry x="-0.5755" y="1" relative="1" as="geometry">
            <mxPoint x="-32" as="offset" />
          </mxGeometry>
        </mxCell>
        <mxCell id="D9AdO3M2kVD_GUAC84vx-39" style="edgeStyle=orthogonalEdgeStyle;rounded=0;orthogonalLoop=1;jettySize=auto;html=1;exitX=0.75;exitY=1;exitDx=0;exitDy=0;entryX=0;entryY=0.25;entryDx=0;entryDy=0;" edge="1" parent="1" source="D9AdO3M2kVD_GUAC84vx-1" target="D9AdO3M2kVD_GUAC84vx-4">
          <mxGeometry relative="1" as="geometry" />
        </mxCell>
        <mxCell id="D9AdO3M2kVD_GUAC84vx-40" value="A" style="edgeLabel;html=1;align=center;verticalAlign=middle;resizable=0;points=[];" vertex="1" connectable="0" parent="D9AdO3M2kVD_GUAC84vx-39">
          <mxGeometry x="0.9516" y="-1" relative="1" as="geometry">
            <mxPoint x="17" as="offset" />
          </mxGeometry>
        </mxCell>
        <mxCell id="D9AdO3M2kVD_GUAC84vx-47" value="INH" style="edgeLabel;html=1;align=center;verticalAlign=middle;resizable=0;points=[];" vertex="1" connectable="0" parent="D9AdO3M2kVD_GUAC84vx-39">
          <mxGeometry x="-0.9551" relative="1" as="geometry">
            <mxPoint y="-19" as="offset" />
          </mxGeometry>
        </mxCell>
        <mxCell id="D9AdO3M2kVD_GUAC84vx-49" value="int_INH" style="edgeLabel;html=1;align=center;verticalAlign=middle;resizable=0;points=[];" vertex="1" connectable="0" parent="D9AdO3M2kVD_GUAC84vx-39">
          <mxGeometry x="-0.2899" y="-1" relative="1" as="geometry">
            <mxPoint x="110" y="-9" as="offset" />
          </mxGeometry>
        </mxCell>
        <mxCell id="D9AdO3M2kVD_GUAC84vx-9" style="edgeStyle=orthogonalEdgeStyle;rounded=0;orthogonalLoop=1;jettySize=auto;html=1;exitX=1;exitY=0.5;exitDx=0;exitDy=0;entryX=0;entryY=0.25;entryDx=0;entryDy=0;" edge="1" parent="1" source="D9AdO3M2kVD_GUAC84vx-2" target="D9AdO3M2kVD_GUAC84vx-3">
          <mxGeometry relative="1" as="geometry" />
        </mxCell>
        <mxCell id="D9AdO3M2kVD_GUAC84vx-23" value="A" style="edgeLabel;html=1;align=center;verticalAlign=middle;resizable=0;points=[];" vertex="1" connectable="0" parent="D9AdO3M2kVD_GUAC84vx-9">
          <mxGeometry x="0.8844" relative="1" as="geometry">
            <mxPoint x="14" as="offset" />
          </mxGeometry>
        </mxCell>
        <mxCell id="D9AdO3M2kVD_GUAC84vx-43" value="Q" style="edgeLabel;html=1;align=center;verticalAlign=middle;resizable=0;points=[];" vertex="1" connectable="0" parent="D9AdO3M2kVD_GUAC84vx-9">
          <mxGeometry x="-0.8007" relative="1" as="geometry">
            <mxPoint x="-23" as="offset" />
          </mxGeometry>
        </mxCell>
        <mxCell id="D9AdO3M2kVD_GUAC84vx-12" style="edgeStyle=orthogonalEdgeStyle;rounded=0;orthogonalLoop=1;jettySize=auto;html=1;exitX=1;exitY=0.5;exitDx=0;exitDy=0;entryX=0;entryY=0.5;entryDx=0;entryDy=0;" edge="1" parent="1" source="D9AdO3M2kVD_GUAC84vx-3" target="D9AdO3M2kVD_GUAC84vx-5">
          <mxGeometry relative="1" as="geometry" />
        </mxCell>
        <mxCell id="D9AdO3M2kVD_GUAC84vx-35" value="CHANNEL" style="edgeLabel;html=1;align=center;verticalAlign=middle;resizable=0;points=[];" vertex="1" connectable="0" parent="D9AdO3M2kVD_GUAC84vx-12">
          <mxGeometry x="-0.5798" y="1" relative="1" as="geometry">
            <mxPoint x="16" y="-9" as="offset" />
          </mxGeometry>
        </mxCell>
        <mxCell id="D9AdO3M2kVD_GUAC84vx-38" value="X" style="edgeLabel;html=1;align=center;verticalAlign=middle;resizable=0;points=[];" vertex="1" connectable="0" parent="D9AdO3M2kVD_GUAC84vx-12">
          <mxGeometry x="0.8183" relative="1" as="geometry">
            <mxPoint x="19" as="offset" />
          </mxGeometry>
        </mxCell>
        <mxCell id="D9AdO3M2kVD_GUAC84vx-44" value="Y" style="edgeLabel;html=1;align=center;verticalAlign=middle;resizable=0;points=[];" vertex="1" connectable="0" parent="D9AdO3M2kVD_GUAC84vx-12">
          <mxGeometry x="-0.8123" y="-1" relative="1" as="geometry">
            <mxPoint x="-22" as="offset" />
          </mxGeometry>
        </mxCell>
        <mxCell id="D9AdO3M2kVD_GUAC84vx-36" style="edgeStyle=orthogonalEdgeStyle;rounded=0;orthogonalLoop=1;jettySize=auto;html=1;exitX=1;exitY=0.5;exitDx=0;exitDy=0;entryX=0.5;entryY=1;entryDx=0;entryDy=0;" edge="1" parent="1" source="D9AdO3M2kVD_GUAC84vx-4" target="D9AdO3M2kVD_GUAC84vx-5">
          <mxGeometry relative="1" as="geometry" />
        </mxCell>
        <mxCell id="D9AdO3M2kVD_GUAC84vx-37" value="INH" style="edgeLabel;html=1;align=center;verticalAlign=middle;resizable=0;points=[];" vertex="1" connectable="0" parent="D9AdO3M2kVD_GUAC84vx-36">
          <mxGeometry x="0.932" relative="1" as="geometry">
            <mxPoint y="-19" as="offset" />
          </mxGeometry>
        </mxCell>
        <mxCell id="D9AdO3M2kVD_GUAC84vx-45" value="Y" style="edgeLabel;html=1;align=center;verticalAlign=middle;resizable=0;points=[];" vertex="1" connectable="0" parent="D9AdO3M2kVD_GUAC84vx-36">
          <mxGeometry x="-0.8586" y="-1" relative="1" as="geometry">
            <mxPoint x="-27" as="offset" />
          </mxGeometry>
        </mxCell>
        <mxCell id="D9AdO3M2kVD_GUAC84vx-50" value="dec_INH" style="edgeLabel;html=1;align=center;verticalAlign=middle;resizable=0;points=[];" vertex="1" connectable="0" parent="D9AdO3M2kVD_GUAC84vx-36">
          <mxGeometry x="-0.2311" y="2" relative="1" as="geometry">
            <mxPoint y="-6" as="offset" />
          </mxGeometry>
        </mxCell>
        <mxCell id="D9AdO3M2kVD_GUAC84vx-13" style="edgeStyle=orthogonalEdgeStyle;rounded=0;orthogonalLoop=1;jettySize=auto;html=1;exitX=1.009;exitY=0.098;exitDx=0;exitDy=0;exitPerimeter=0;endArrow=oval;endFill=0;" edge="1" parent="1" source="D9AdO3M2kVD_GUAC84vx-5">
          <mxGeometry relative="1" as="geometry">
            <mxPoint x="900" y="250" as="targetPoint" />
            <mxPoint x="840" y="260" as="sourcePoint" />
            <Array as="points">
              <mxPoint x="890" y="250" />
            </Array>
          </mxGeometry>
        </mxCell>
        <mxCell id="D9AdO3M2kVD_GUAC84vx-17" value="CS(0)" style="edgeLabel;html=1;align=center;verticalAlign=middle;resizable=0;points=[];" vertex="1" connectable="0" parent="D9AdO3M2kVD_GUAC84vx-13">
          <mxGeometry x="1" y="-1" relative="1" as="geometry">
            <mxPoint x="20" y="-1" as="offset" />
          </mxGeometry>
        </mxCell>
        <mxCell id="D9AdO3M2kVD_GUAC84vx-11" style="edgeStyle=orthogonalEdgeStyle;rounded=0;orthogonalLoop=1;jettySize=auto;html=1;exitX=0.5;exitY=0;exitDx=0;exitDy=0;entryX=0;entryY=0.75;entryDx=0;entryDy=0;" edge="1" parent="1" source="D9AdO3M2kVD_GUAC84vx-6" target="D9AdO3M2kVD_GUAC84vx-3">
          <mxGeometry relative="1" as="geometry" />
        </mxCell>
        <mxCell id="D9AdO3M2kVD_GUAC84vx-24" value="B" style="edgeLabel;html=1;align=center;verticalAlign=middle;resizable=0;points=[];" vertex="1" connectable="0" parent="D9AdO3M2kVD_GUAC84vx-11">
          <mxGeometry x="0.7846" relative="1" as="geometry">
            <mxPoint x="13" as="offset" />
          </mxGeometry>
        </mxCell>
        <mxCell id="D9AdO3M2kVD_GUAC84vx-6" value="12" style="text;html=1;align=center;verticalAlign=middle;whiteSpace=wrap;rounded=0;strokeColor=default;strokeWidth=1;" vertex="1" parent="1">
          <mxGeometry x="540" y="330" width="40" height="30" as="geometry" />
        </mxCell>
        <mxCell id="D9AdO3M2kVD_GUAC84vx-25" style="edgeStyle=orthogonalEdgeStyle;rounded=0;orthogonalLoop=1;jettySize=auto;html=1;exitX=0.5;exitY=0;exitDx=0;exitDy=0;entryX=0;entryY=0.75;entryDx=0;entryDy=0;" edge="1" parent="1" source="D9AdO3M2kVD_GUAC84vx-7" target="D9AdO3M2kVD_GUAC84vx-4">
          <mxGeometry relative="1" as="geometry" />
        </mxCell>
        <mxCell id="D9AdO3M2kVD_GUAC84vx-26" value="B" style="edgeLabel;html=1;align=center;verticalAlign=middle;resizable=0;points=[];" vertex="1" connectable="0" parent="D9AdO3M2kVD_GUAC84vx-25">
          <mxGeometry x="0.7846" y="1" relative="1" as="geometry">
            <mxPoint x="13" as="offset" />
          </mxGeometry>
        </mxCell>
        <mxCell id="D9AdO3M2kVD_GUAC84vx-7" value="0" style="text;html=1;align=center;verticalAlign=middle;whiteSpace=wrap;rounded=0;strokeColor=default;strokeWidth=1;" vertex="1" parent="1">
          <mxGeometry x="540" y="490" width="40" height="30" as="geometry" />
        </mxCell>
        <mxCell id="D9AdO3M2kVD_GUAC84vx-14" style="edgeStyle=orthogonalEdgeStyle;rounded=0;orthogonalLoop=1;jettySize=auto;html=1;exitX=1;exitY=0.25;exitDx=0;exitDy=0;endArrow=oval;endFill=0;" edge="1" parent="1">
          <mxGeometry relative="1" as="geometry">
            <mxPoint x="900" y="270" as="targetPoint" />
            <mxPoint x="840" y="270" as="sourcePoint" />
          </mxGeometry>
        </mxCell>
        <mxCell id="D9AdO3M2kVD_GUAC84vx-18" value="CS(1)" style="edgeLabel;html=1;align=center;verticalAlign=middle;resizable=0;points=[];" vertex="1" connectable="0" parent="D9AdO3M2kVD_GUAC84vx-14">
          <mxGeometry x="1" y="1" relative="1" as="geometry">
            <mxPoint x="20" y="1" as="offset" />
          </mxGeometry>
        </mxCell>
        <mxCell id="D9AdO3M2kVD_GUAC84vx-46" value="Y" style="edgeLabel;html=1;align=center;verticalAlign=middle;resizable=0;points=[];" vertex="1" connectable="0" parent="D9AdO3M2kVD_GUAC84vx-14">
          <mxGeometry x="-1" relative="1" as="geometry">
            <mxPoint x="-6" y="20" as="offset" />
          </mxGeometry>
        </mxCell>
        <mxCell id="D9AdO3M2kVD_GUAC84vx-15" style="edgeStyle=orthogonalEdgeStyle;rounded=0;orthogonalLoop=1;jettySize=auto;html=1;exitX=1;exitY=0.25;exitDx=0;exitDy=0;endArrow=oval;endFill=0;" edge="1" parent="1">
          <mxGeometry relative="1" as="geometry">
            <mxPoint x="900" y="310" as="targetPoint" />
            <mxPoint x="840" y="310" as="sourcePoint" />
          </mxGeometry>
        </mxCell>
        <mxCell id="D9AdO3M2kVD_GUAC84vx-19" value="CS(5)" style="edgeLabel;html=1;align=center;verticalAlign=middle;resizable=0;points=[];" vertex="1" connectable="0" parent="D9AdO3M2kVD_GUAC84vx-15">
          <mxGeometry x="1" y="-1" relative="1" as="geometry">
            <mxPoint x="20" y="-1" as="offset" />
          </mxGeometry>
        </mxCell>
        <mxCell id="D9AdO3M2kVD_GUAC84vx-16" style="edgeStyle=orthogonalEdgeStyle;rounded=0;orthogonalLoop=1;jettySize=auto;html=1;exitX=1;exitY=0.25;exitDx=0;exitDy=0;endArrow=oval;endFill=0;" edge="1" parent="1">
          <mxGeometry relative="1" as="geometry">
            <mxPoint x="900" y="330" as="targetPoint" />
            <mxPoint x="840" y="330" as="sourcePoint" />
          </mxGeometry>
        </mxCell>
        <mxCell id="D9AdO3M2kVD_GUAC84vx-20" value="CS(6)" style="edgeLabel;html=1;align=center;verticalAlign=middle;resizable=0;points=[];" vertex="1" connectable="0" parent="D9AdO3M2kVD_GUAC84vx-16">
          <mxGeometry x="1" y="1" relative="1" as="geometry">
            <mxPoint x="20" y="1" as="offset" />
          </mxGeometry>
        </mxCell>
        <mxCell id="D9AdO3M2kVD_GUAC84vx-21" value="" style="endArrow=none;dashed=1;html=1;dashPattern=1 3;strokeWidth=2;rounded=0;" edge="1" parent="1">
          <mxGeometry width="50" height="50" relative="1" as="geometry">
            <mxPoint x="870" y="300" as="sourcePoint" />
            <mxPoint x="870" y="280" as="targetPoint" />
          </mxGeometry>
        </mxCell>
        <mxCell id="D9AdO3M2kVD_GUAC84vx-29" value="" style="endArrow=oval;html=1;rounded=0;endFill=1;startArrow=oval;startFill=0;" edge="1" parent="1">
          <mxGeometry width="50" height="50" relative="1" as="geometry">
            <mxPoint x="900" y="390" as="sourcePoint" />
            <mxPoint x="740" y="290" as="targetPoint" />
            <Array as="points">
              <mxPoint x="740" y="390" />
            </Array>
          </mxGeometry>
        </mxCell>
        <mxCell id="D9AdO3M2kVD_GUAC84vx-31" value="CH(2..0)" style="edgeLabel;html=1;align=center;verticalAlign=middle;resizable=0;points=[];" vertex="1" connectable="0" parent="D9AdO3M2kVD_GUAC84vx-29">
          <mxGeometry x="-0.7338" y="2" relative="1" as="geometry">
            <mxPoint x="59" y="-2" as="offset" />
          </mxGeometry>
        </mxCell>
        <mxCell id="D9AdO3M2kVD_GUAC84vx-30" value="(2..0)" style="text;html=1;align=center;verticalAlign=middle;whiteSpace=wrap;rounded=0;" vertex="1" parent="1">
          <mxGeometry x="747" y="367" width="60" height="30" as="geometry" />
        </mxCell>
        <mxCell id="D9AdO3M2kVD_GUAC84vx-32" value="Analog Switch CTRL" style="text;html=1;align=center;verticalAlign=middle;whiteSpace=wrap;rounded=0;" vertex="1" parent="1">
          <mxGeometry x="980" y="280" width="90" height="60" as="geometry" />
        </mxCell>
        <mxCell id="D9AdO3M2kVD_GUAC84vx-34" value="" style="endArrow=none;html=1;rounded=0;strokeWidth=2;" edge="1" parent="1">
          <mxGeometry width="50" height="50" relative="1" as="geometry">
            <mxPoint x="970" y="410" as="sourcePoint" />
            <mxPoint x="970" y="220" as="targetPoint" />
            <Array as="points">
              <mxPoint x="980" y="400" />
              <mxPoint x="980" y="230" />
            </Array>
          </mxGeometry>
        </mxCell>
        <mxCell id="D9AdO3M2kVD_GUAC84vx-41" value="ROM size:&lt;div&gt;6bit/word&lt;/div&gt;&lt;div&gt;64word&lt;/div&gt;" style="text;html=1;align=center;verticalAlign=middle;whiteSpace=wrap;rounded=0;" vertex="1" parent="1">
          <mxGeometry x="380" y="330" width="60" height="30" as="geometry" />
        </mxCell>
        <mxCell id="D9AdO3M2kVD_GUAC84vx-52" style="edgeStyle=orthogonalEdgeStyle;rounded=0;orthogonalLoop=1;jettySize=auto;html=1;exitX=0;exitY=0.5;exitDx=0;exitDy=0;endArrow=oval;endFill=0;startArrow=none;startFill=0;" edge="1" parent="1" source="D9AdO3M2kVD_GUAC84vx-1">
          <mxGeometry relative="1" as="geometry">
            <mxPoint x="89.99999999999994" y="290.0392156862746" as="targetPoint" />
          </mxGeometry>
        </mxCell>
        <mxCell id="D9AdO3M2kVD_GUAC84vx-53" value="CLK" style="edgeLabel;html=1;align=center;verticalAlign=middle;resizable=0;points=[];" vertex="1" connectable="0" parent="D9AdO3M2kVD_GUAC84vx-52">
          <mxGeometry x="0.9574" relative="1" as="geometry">
            <mxPoint x="-20" as="offset" />
          </mxGeometry>
        </mxCell>
        <mxCell id="D9AdO3M2kVD_GUAC84vx-56" value="CLK" style="edgeLabel;html=1;align=center;verticalAlign=middle;resizable=0;points=[];" vertex="1" connectable="0" parent="D9AdO3M2kVD_GUAC84vx-52">
          <mxGeometry x="-0.6224" relative="1" as="geometry">
            <mxPoint x="26" as="offset" />
          </mxGeometry>
        </mxCell>
        <mxCell id="D9AdO3M2kVD_GUAC84vx-63" value="" style="endArrow=oval;html=1;rounded=0;endFill=1;startArrow=none;startFill=0;" edge="1" parent="1" source="D9AdO3M2kVD_GUAC84vx-66">
          <mxGeometry width="50" height="50" relative="1" as="geometry">
            <mxPoint x="80" y="590" as="sourcePoint" />
            <mxPoint x="667" y="520" as="targetPoint" />
            <Array as="points">
              <mxPoint x="667" y="590" />
            </Array>
          </mxGeometry>
        </mxCell>
        <mxCell id="D9AdO3M2kVD_GUAC84vx-67" value="" style="endArrow=none;html=1;rounded=0;endFill=0;startArrow=oval;startFill=0;" edge="1" parent="1" target="D9AdO3M2kVD_GUAC84vx-66">
          <mxGeometry width="50" height="50" relative="1" as="geometry">
            <mxPoint x="80" y="590" as="sourcePoint" />
            <mxPoint x="667" y="520" as="targetPoint" />
            <Array as="points" />
          </mxGeometry>
        </mxCell>
        <mxCell id="D9AdO3M2kVD_GUAC84vx-68" value="SW(4)" style="edgeLabel;html=1;align=center;verticalAlign=middle;resizable=0;points=[];" vertex="1" connectable="0" parent="D9AdO3M2kVD_GUAC84vx-67">
          <mxGeometry x="-0.9868" relative="1" as="geometry">
            <mxPoint x="-25" as="offset" />
          </mxGeometry>
        </mxCell>
        <mxCell id="D9AdO3M2kVD_GUAC84vx-69" value="TEST" style="edgeLabel;html=1;align=center;verticalAlign=middle;resizable=0;points=[];" vertex="1" connectable="0" parent="D9AdO3M2kVD_GUAC84vx-67">
          <mxGeometry x="-0.9456" relative="1" as="geometry">
            <mxPoint x="90" y="-8" as="offset" />
          </mxGeometry>
        </mxCell>
        <mxCell id="D9AdO3M2kVD_GUAC84vx-66" value="" style="verticalLabelPosition=bottom;shadow=0;dashed=0;align=center;html=1;verticalAlign=top;shape=mxgraph.electrical.logic_gates.inverter_2" vertex="1" parent="1">
          <mxGeometry x="110" y="580" width="30" height="20" as="geometry" />
        </mxCell>
        <mxCell id="D9AdO3M2kVD_GUAC84vx-70" value="" style="endArrow=none;html=1;rounded=0;endFill=0;startArrow=oval;startFill=0;" edge="1" parent="1">
          <mxGeometry width="50" height="50" relative="1" as="geometry">
            <mxPoint x="80" y="630" as="sourcePoint" />
            <mxPoint x="110" y="630" as="targetPoint" />
            <Array as="points" />
          </mxGeometry>
        </mxCell>
        <mxCell id="D9AdO3M2kVD_GUAC84vx-71" value="SW(3)&lt;div&gt;(current set)&lt;/div&gt;" style="edgeLabel;html=1;align=right;verticalAlign=middle;resizable=0;points=[];" vertex="1" connectable="0" parent="D9AdO3M2kVD_GUAC84vx-70">
          <mxGeometry x="-0.9868" relative="1" as="geometry">
            <mxPoint x="-7" as="offset" />
          </mxGeometry>
        </mxCell>
        <mxCell id="D9AdO3M2kVD_GUAC84vx-72" value="ZOUT" style="edgeLabel;html=1;align=center;verticalAlign=middle;resizable=0;points=[];" vertex="1" connectable="0" parent="D9AdO3M2kVD_GUAC84vx-70">
          <mxGeometry x="-0.9456" relative="1" as="geometry">
            <mxPoint x="90" y="-8" as="offset" />
          </mxGeometry>
        </mxCell>
        <mxCell id="D9AdO3M2kVD_GUAC84vx-74" style="edgeStyle=orthogonalEdgeStyle;rounded=0;orthogonalLoop=1;jettySize=auto;html=1;endArrow=oval;endFill=0;" edge="1" parent="1" source="D9AdO3M2kVD_GUAC84vx-73">
          <mxGeometry relative="1" as="geometry">
            <mxPoint x="900" y="630" as="targetPoint" />
          </mxGeometry>
        </mxCell>
        <mxCell id="D9AdO3M2kVD_GUAC84vx-83" value="ZOUT" style="edgeLabel;html=1;align=center;verticalAlign=middle;resizable=0;points=[];" vertex="1" connectable="0" parent="D9AdO3M2kVD_GUAC84vx-74">
          <mxGeometry x="1" y="-3" relative="1" as="geometry">
            <mxPoint x="20" y="-3" as="offset" />
          </mxGeometry>
        </mxCell>
        <mxCell id="D9AdO3M2kVD_GUAC84vx-73" value="" style="verticalLabelPosition=bottom;shadow=0;dashed=0;align=center;html=1;verticalAlign=top;shape=mxgraph.electrical.logic_gates.inverter_2" vertex="1" parent="1">
          <mxGeometry x="110" y="620" width="30" height="20" as="geometry" />
        </mxCell>
        <mxCell id="D9AdO3M2kVD_GUAC84vx-75" value="" style="endArrow=none;html=1;rounded=0;endFill=0;startArrow=oval;startFill=0;" edge="1" parent="1">
          <mxGeometry width="50" height="50" relative="1" as="geometry">
            <mxPoint x="80" y="670" as="sourcePoint" />
            <mxPoint x="110" y="670" as="targetPoint" />
            <Array as="points" />
          </mxGeometry>
        </mxCell>
        <mxCell id="D9AdO3M2kVD_GUAC84vx-76" value="SW(2)&lt;div&gt;(current set)&lt;/div&gt;" style="edgeLabel;html=1;align=right;verticalAlign=middle;resizable=0;points=[];" vertex="1" connectable="0" parent="D9AdO3M2kVD_GUAC84vx-75">
          <mxGeometry x="-0.9868" relative="1" as="geometry">
            <mxPoint x="-7" as="offset" />
          </mxGeometry>
        </mxCell>
        <mxCell id="D9AdO3M2kVD_GUAC84vx-77" value="AMP(0)" style="edgeLabel;html=1;align=center;verticalAlign=middle;resizable=0;points=[];" vertex="1" connectable="0" parent="D9AdO3M2kVD_GUAC84vx-75">
          <mxGeometry x="-0.9456" relative="1" as="geometry">
            <mxPoint x="90" y="-8" as="offset" />
          </mxGeometry>
        </mxCell>
        <mxCell id="D9AdO3M2kVD_GUAC84vx-78" style="edgeStyle=orthogonalEdgeStyle;rounded=0;orthogonalLoop=1;jettySize=auto;html=1;endArrow=oval;endFill=0;" edge="1" parent="1" source="D9AdO3M2kVD_GUAC84vx-79">
          <mxGeometry relative="1" as="geometry">
            <mxPoint x="901.25" y="670" as="targetPoint" />
          </mxGeometry>
        </mxCell>
        <mxCell id="D9AdO3M2kVD_GUAC84vx-84" value="AMP(0)" style="edgeLabel;html=1;align=left;verticalAlign=middle;resizable=0;points=[];" vertex="1" connectable="0" parent="D9AdO3M2kVD_GUAC84vx-78">
          <mxGeometry x="1" relative="1" as="geometry">
            <mxPoint x="2" as="offset" />
          </mxGeometry>
        </mxCell>
        <mxCell id="D9AdO3M2kVD_GUAC84vx-79" value="" style="verticalLabelPosition=bottom;shadow=0;dashed=0;align=center;html=1;verticalAlign=top;shape=mxgraph.electrical.logic_gates.inverter_2" vertex="1" parent="1">
          <mxGeometry x="110" y="660" width="30" height="20" as="geometry" />
        </mxCell>
        <mxCell id="D9AdO3M2kVD_GUAC84vx-80" value="Current Driver&lt;div&gt;CTRL&lt;/div&gt;" style="text;html=1;align=center;verticalAlign=middle;whiteSpace=wrap;rounded=0;" vertex="1" parent="1">
          <mxGeometry x="980" y="627" width="90" height="60" as="geometry" />
        </mxCell>
        <mxCell id="D9AdO3M2kVD_GUAC84vx-81" value="" style="endArrow=none;html=1;rounded=0;strokeWidth=2;" edge="1" parent="1">
          <mxGeometry width="50" height="50" relative="1" as="geometry">
            <mxPoint x="970" y="687" as="sourcePoint" />
            <mxPoint x="970" y="617" as="targetPoint" />
            <Array as="points">
              <mxPoint x="980" y="677" />
              <mxPoint x="980" y="627" />
            </Array>
          </mxGeometry>
        </mxCell>
        <mxCell id="D9AdO3M2kVD_GUAC84vx-85" value="Top-Level RTL Block diagram&lt;div&gt;(PhantomDriver.vhdl)&lt;/div&gt;" style="text;html=1;align=center;verticalAlign=middle;whiteSpace=wrap;rounded=0;fontSize=16;" vertex="1" parent="1">
          <mxGeometry x="80" y="120" width="250" height="50" as="geometry" />
        </mxCell>
      </root>
    </mxGraphModel>
  </diagram>
</mxfile>
